<svg width="110" height="130" viewBox="0 0 110 130" fill="none" xmlns="http://www.w3.org/2000/svg">
<path d="M55 130L97.2561 111.042L110 12.8646L55 0L0 12.8646L12.7439 111.042L55 130Z" fill="#C74634"/>
<path d="M55.0005 75.5219C45.7512 75.5219 36.0658 73.1724 32.0615 68.7511V77.025C32.0615 82.2928 42.3304 86.5584 55.0005 86.5584C67.6707 86.5584 77.9396 82.2928 77.9396 77.025V68.7375C73.9688 73.1657 64.2768 75.5219 55.0005 75.5219Z" fill="white"/>
<path d="M55.0336 73.45C67.7025 73.45 77.9727 69.2849 77.9727 64.1469C77.9727 59.0089 67.7025 54.8438 55.0336 54.8438C42.3648 54.8438 32.0946 59.0089 32.0946 64.1469C32.0946 69.2849 42.3648 73.45 55.0336 73.45Z" fill="white"/>
<path d="M57.0126 48.75L58.4278 27.7062L66.2351 29.0198L55.0004 12.1875L43.7656 29.0198L51.5729 27.7062L52.9882 48.75H57.0126Z" fill="white"/>
<path d="M19.6322 28.9927C25.7224 29.839 31.5041 31.5521 36.2126 35.7635C37.6339 37.1659 38.9774 38.6465 40.237 40.1984L40.5925 40.5911L45.784 37.2734L42.4303 49.8807L31.0279 43.7395V43.55L36.1925 42.4396C32.745 34.7547 26.3998 31.2677 18.5791 29.8526L19.6322 28.9927Z" fill="white"/>
<path d="M90.3676 28.9927C84.2774 29.839 78.4957 31.5521 73.7872 35.7635C72.3659 37.1659 71.0224 38.6465 69.7628 40.1984L69.4073 40.5911L64.2158 37.2734L67.5695 49.8807L78.9719 43.7395V43.55L73.8073 42.4396C77.2548 34.7547 83.6 31.2677 91.4207 29.8526L90.3676 28.9927Z" fill="white"/>
<path d="M55.0005 88.6167C43.8597 88.6167 34.5231 85.4886 32.0615 81.2906V90.0927C32.0615 95.3604 42.3304 99.6261 55.0005 99.6261C67.6707 99.6261 77.9396 95.3604 77.9396 90.0927V81.2906C75.5048 85.4886 66.1749 88.6167 55.0005 88.6167Z" fill="white"/>
<path d="M55.0005 101.705C43.8597 101.705 34.5231 98.5766 32.0615 94.3787V103.181C32.0615 108.448 42.3304 112.714 55.0005 112.714C67.6707 112.714 77.9396 108.448 77.9396 103.181V94.3787C75.5048 98.5833 66.1749 101.705 55.0005 101.705Z" fill="white"/>
</svg>
